<svg width="100" height="100" viewBox="0 0 100 100" fill="none" xmlns="http://www.w3.org/2000/svg">
<path d="M92.2835 45.6124C95.9055 47.4239 95.9055 52.5761 92.2835 54.3876L12.1354 94.4721C8.85974 96.1104 5 93.7371 5 90.0846V9.91545C5 6.26295 8.85974 3.8896 12.1354 5.52788L92.2835 45.6124Z" fill="url(#paint0_radial)"/>
<path d="M92.2835 45.6124C95.9055 47.4239 95.9055 52.5761 92.2835 54.3876L12.1354 94.4721C8.85974 96.1104 5 93.7371 5 90.0846V9.91545C5 6.26295 8.85974 3.8896 12.1354 5.52788L92.2835 45.6124Z" fill="#43B5A0"/>
<path d="M92.2835 45.6124C95.9055 47.4239 95.9055 52.5761 92.2835 54.3876L12.1354 94.4721C8.85974 96.1104 5 93.7371 5 90.0846V9.91545C5 6.26295 8.85974 3.8896 12.1354 5.52788L92.2835 45.6124Z" fill="#DBFF00"/>
<path d="M1.14863 29.314L1.14862 29.314L1.15015 29.32L10.7511 66.6016C10.7514 66.603 10.7518 66.6045 10.7522 66.6059C11.2071 68.4374 11.8919 69.9095 12.9011 70.8658L12.901 70.8659L12.9106 70.8747C13.9613 71.8447 15.3817 72.2619 17.027 72.2619H19.3982C21.1954 72.2619 22.7271 71.8078 23.8088 70.7303C24.1745 70.366 24.5038 69.8001 24.8128 69.1543C25.1344 68.4822 25.4804 67.6214 25.8514 66.5829C28.1474 60.3173 30.0076 53.096 31.4377 44.9258L32.3706 39.891L39.0276 66.3391L39.0278 66.3397C39.4924 68.1805 40.256 69.6732 41.3906 70.7088C42.5437 71.7612 43.9933 72.2619 45.6585 72.2619H48C49.6762 72.2619 51.1085 71.746 52.1653 70.6197C52.8419 69.908 53.5074 68.7379 54.1817 67.2255C54.8685 65.6848 55.6045 63.6946 56.3907 61.2659C59.6455 51.2227 61.6323 42.3406 62.333 34.6286C62.4526 33.4562 62.5332 32.4149 62.5737 31.5067L62.5737 31.5057C62.6135 30.595 62.634 29.8696 62.634 29.3363C62.634 28.7815 62.5918 28.2608 62.5011 27.7791C62.372 26.9541 62.0237 26.2186 61.3731 25.7033C60.73 25.1939 59.9176 25 59.0554 25H56.3582C55.0135 25 53.8581 25.5025 53.2666 26.7121L53.2665 26.7121L53.2607 26.7243C53.0447 27.1815 52.921 27.6824 52.8726 28.2121C52.8285 28.6961 52.8092 29.5159 52.8092 30.6354C52.8092 31.7232 52.7517 32.9541 52.635 34.3301L52.6342 34.339L52.6336 34.3479C52.5759 35.2108 52.4791 36.1956 52.3425 37.3038L52.3414 37.3125L52.3405 37.3211C52.2235 38.4288 51.9781 40.4052 51.6026 43.2598C51.2341 46.041 50.4933 49.6993 49.3719 54.2467L48.3382 58.248C47.9862 59.5136 47.6451 60.6588 47.3148 61.6845L47.3122 61.6927L47.3097 61.701C47.1855 62.1108 47.0714 62.4778 46.9673 62.8029L40.9673 38.8952L40.966 38.8899C40.5256 37.175 39.6605 34.175 38.3764 29.9046L38.3738 29.8958L38.371 29.8871C38.0211 28.7964 37.4666 27.8881 36.6552 27.2558C35.8363 26.6177 34.8427 26.3286 33.7435 26.3286H30.7796C29.6237 26.3286 28.5831 26.6067 27.7537 27.2582C26.9226 27.9111 26.4139 28.8522 26.1594 29.9686C25.4852 32.8921 24.8703 35.7767 24.3149 38.6223C23.7646 41.422 23.1552 44.2318 22.4869 47.0517L20.3542 55.6383L20.354 55.6391C19.7797 57.9595 19.1013 60.1929 18.3195 62.3399C17.9898 60.6749 17.2022 56.8036 15.9616 50.7479L15.9616 50.7479L15.9603 50.7419C15.8023 49.994 15.6957 49.4722 15.6387 49.1693L15.6353 49.1517L15.6314 49.1343L10.7717 27.5861C10.6196 26.8784 10.3415 26.2252 9.85618 25.7418C9.34511 25.2327 8.69262 25 7.98711 25H3.74871C2.94395 25 2.21307 25.2859 1.6809 25.9154L1.67069 25.9275L1.66087 25.9399C1.21976 26.4964 1 27.1501 1 27.8601C1 28.3967 1.04219 28.8899 1.14863 29.314ZM47.3844 64.4732C47.3844 64.4733 47.3841 64.4722 47.3835 64.4697C47.3841 64.4719 47.3844 64.4731 47.3844 64.4732ZM79.6062 62.5699L79.6013 62.5652C78.2596 61.2901 77.4976 59.635 77.3574 57.5235C80.0147 58.1716 82.4226 58.5032 84.5735 58.5032C88.5487 58.5032 91.8588 57.7224 94.4219 56.0703C97.4044 54.1479 98.9111 51.3163 98.9111 47.7009C98.9111 44.0987 97.6623 41.1882 95.1051 39.1019L95.1047 39.1016C93.9057 38.1244 92.492 37.3982 90.8808 36.9122C89.2763 36.4223 87.3641 36.19 85.1662 36.19C82.9411 36.19 80.767 36.5529 78.6482 37.2771L78.6453 37.2781C75.206 38.4657 72.5918 40.5931 70.8554 43.6491C69.1321 46.6823 68.3093 50.5653 68.3093 55.2298C68.3093 60.6411 69.9531 65.0425 73.3234 68.3163C74.8888 69.854 76.7375 71.0198 78.8578 71.8144L78.8608 71.8156C80.9778 72.6012 83.0911 73 85.1959 73C87.2386 73 89.2067 72.7965 91.0983 72.3868C92.0442 72.182 92.9614 71.9255 93.8495 71.6171C94.7723 71.3035 95.5997 70.9311 96.3235 70.4941C97.0484 70.0565 97.6634 69.5556 98.1439 68.9813C98.6468 68.3843 99 67.6917 99 66.9217C99 66.334 98.8837 65.7697 98.6446 65.2404L98.6391 65.2284L98.6334 65.2165L97.8331 63.5631L97.8276 63.5517L97.8218 63.5405C97.5738 63.0594 97.2367 62.6406 96.7862 62.3441C96.3296 62.0436 95.8131 61.9063 95.2732 61.9063C94.6296 61.9063 94.024 62.1856 93.4884 62.5568L93.4878 62.5572C91.2365 64.1197 88.8256 64.8883 86.2333 64.8883C83.3455 64.8883 81.1764 64.0826 79.6062 62.5699ZM78.5418 47.8321L78.5449 47.8264C79.7733 45.5803 81.9164 44.3902 85.2552 44.3902C87.0576 44.3902 88.2276 44.7297 88.9274 45.2489C89.5712 45.7265 89.9459 46.453 89.9459 47.6123C89.9459 48.7234 89.4943 49.5013 88.5031 50.0644C87.4283 50.6751 85.6872 51.0411 83.1508 51.0411C80.9689 51.0411 79.1827 50.7371 77.7587 50.1682C77.9264 49.2336 78.1929 48.4603 78.5418 47.8321Z" fill="url(#paint1_linear)" stroke="#FA448C" stroke-width="2"/>
<mask id="path-3-outside-1" maskUnits="userSpaceOnUse" x="44" y="71" width="56" height="29" fill="black">
<rect fill="white" x="44" y="71" width="56" height="29"/>
<path d="M48.3673 90.4615C48.4507 91.2308 48.4924 92.1923 48.4924 93.3462V98.1115C48.4924 98.6808 48.2463 98.9654 47.7539 98.9654H46.2017C45.676 98.9654 45.4131 98.6654 45.4131 98.0654V85.2923C45.4131 83.1308 45.2879 81.5538 45.0376 80.5615C45.0125 80.4615 45 80.3231 45 80.1462C45 79.9692 45.0751 79.8077 45.2253 79.6615C45.3839 79.5154 45.5842 79.4423 45.8262 79.4423H46.5898C47.0487 79.4423 47.3742 79.6269 47.5661 79.9962C47.7915 80.4269 47.9625 80.9846 48.0794 81.6692C48.6635 80.7308 49.4605 80.0462 50.4702 79.6154C51.1879 79.3077 52.0016 79.1538 52.9112 79.1538C53.8292 79.1538 54.647 79.3192 55.3647 79.65C56.0824 79.9731 56.679 80.4192 57.1547 80.9885C58.0977 82.1192 58.5692 83.6346 58.5692 85.5346C58.5692 87.5192 58.0393 89.1962 56.9795 90.5654C55.8612 92.0192 54.3966 92.7462 52.5857 92.7462C50.6997 92.7462 49.2936 91.9846 48.3673 90.4615ZM48.2045 86.3654C48.2045 87.4731 48.6051 88.4269 49.4062 89.2269C50.1657 89.9808 51.0252 90.3577 51.9849 90.3577C53.1949 90.3577 54.092 89.8154 54.6762 88.7308C55.1435 87.8692 55.3772 86.7808 55.3772 85.4654C55.3772 84.4038 55.1018 83.5038 54.551 82.7654C53.9585 81.9654 53.1699 81.5654 52.1852 81.5654C51.0753 81.5654 50.1281 81.9885 49.3437 82.8346C48.5842 83.6654 48.2045 84.6308 48.2045 85.7308V86.3654Z"/>
<path d="M65.9041 89.2846C65.9041 89.8308 66.1127 90.1038 66.53 90.1038C66.6635 90.1038 66.8346 90.0692 67.0432 90C67.4271 89.8692 67.6608 89.8038 67.7442 89.8038C67.9362 89.8038 68.0864 89.9154 68.1949 90.1385L68.5829 90.9577C68.633 91.0731 68.658 91.1808 68.658 91.2808C68.658 91.4577 68.4995 91.6731 68.1823 91.9269C67.5481 92.4115 66.7178 92.6538 65.6913 92.6538C63.822 92.6538 62.8873 91.5038 62.8873 89.2038V72.75C62.8873 72.5423 62.9541 72.3654 63.0876 72.2192C63.2211 72.0731 63.3797 72 63.5633 72H65.2407C65.4326 72 65.5912 72.0731 65.7163 72.2192C65.8415 72.3654 65.9041 72.5423 65.9041 72.75V89.2846Z"/>
<path d="M83.2782 91.8462C83.2782 92.2538 83.0613 92.4577 82.6273 92.4577H81.4131C81.0876 92.4577 80.8915 92.4 80.8248 92.2846C80.758 92.1615 80.7204 92.0538 80.7121 91.9615C80.7037 91.8615 80.6871 91.7423 80.662 91.6038C80.6119 91.2269 80.541 90.8192 80.4492 90.3808C79.7983 91.4808 78.776 92.2077 77.3824 92.5615C76.89 92.6846 76.3476 92.7462 75.7551 92.7462C75.1626 92.7462 74.5701 92.6538 73.9775 92.4692C73.385 92.2923 72.8593 92.0269 72.4003 91.6731C71.3655 90.8731 70.8481 89.8231 70.8481 88.5231C70.8481 87.1 71.4156 86.0115 72.5505 85.2577C73.4852 84.65 74.6869 84.3462 76.1556 84.3462C77.6244 84.3462 78.8678 84.7423 79.8859 85.5346C79.9109 85.2731 79.9235 84.9462 79.9235 84.5538C79.9235 84.1615 79.84 83.7692 79.6731 83.3769C79.5062 82.9846 79.2684 82.6577 78.9596 82.3962C78.3254 81.8808 77.4408 81.6231 76.3058 81.6231C75.2877 81.6231 74.2529 81.8808 73.2014 82.3962C73.0012 82.4962 72.8259 82.5462 72.6757 82.5462C72.4504 82.5462 72.2334 82.3423 72.0248 81.9346C71.7995 81.5192 71.6868 81.2192 71.6868 81.0346C71.6868 80.6962 71.9622 80.3692 72.513 80.0538C73.5645 79.4538 74.9706 79.1538 76.7314 79.1538C78.3337 79.1538 79.6606 79.5577 80.7121 80.3654C81.9555 81.3346 82.5772 82.7038 82.5772 84.4731C82.5772 85.2577 82.4395 86.2462 82.1641 87.4385C82.8735 89.3 83.2448 90.7692 83.2782 91.8462ZM74.8913 86.9538C74.5492 87.1846 74.303 87.4154 74.1528 87.6462C74.0109 87.8769 73.94 88.15 73.94 88.4654C73.94 88.7731 73.9984 89.05 74.1152 89.2962C74.2404 89.5346 74.4115 89.7346 74.6285 89.8962C75.0875 90.2269 75.6007 90.3923 76.1682 90.3923C76.744 90.3923 77.2155 90.3308 77.5827 90.2077C77.9498 90.0846 78.267 89.9269 78.534 89.7346C79.1098 89.3192 79.3977 88.8808 79.3977 88.4192C79.3477 87.8423 79.0013 87.3885 78.3588 87.0577C77.7829 86.75 77.1028 86.5962 76.3184 86.5962C75.7092 86.5962 75.2335 86.7154 74.8913 86.9538Z"/>
<path d="M98.1989 79.4423C98.733 79.4423 99 79.6846 99 80.1692C99 80.7308 98.6829 81.9731 98.0487 83.8962L97.2726 86.1C95.445 90.9308 93.1793 94.9077 90.4754 98.0308L90.2251 98.3192C89.8412 98.7731 89.449 99 89.0484 99C88.6228 99 88.1304 98.7269 87.5713 98.1808C87.4128 98.0269 87.3335 97.85 87.3335 97.65C87.3335 97.3269 87.5212 96.9846 87.8968 96.6231C88.2723 96.2692 88.6186 95.9115 88.9357 95.55C89.2529 95.1962 89.5533 94.8385 89.837 94.4769C90.3544 93.8231 90.8217 93.1346 91.239 92.4115C89.9372 89.1731 89.1485 87.2346 88.8732 86.5962L87.5087 83.4692L86.5449 81.45C86.186 80.6808 86.0066 80.2154 86.0066 80.0538C86.0066 79.8846 86.0817 79.7423 86.2319 79.6269C86.3905 79.5038 86.6116 79.4423 86.8954 79.4423H88.4726C88.8398 79.4423 89.1235 79.6346 89.3238 80.0192C89.474 80.3038 89.6785 80.7731 89.9372 81.4269C90.4629 82.8423 90.8468 83.8923 91.0888 84.5769L92.1027 87.6346C92.2029 87.9423 92.278 88.1885 92.328 88.3731L92.4407 88.7885C92.4657 88.8808 92.4949 88.9962 92.5283 89.1346L92.641 89.5731C92.6827 89.7269 92.7286 89.8038 92.7787 89.8038C92.8288 89.8038 92.883 89.7577 92.9414 89.6654C93.0082 89.5731 93.0749 89.4538 93.1417 89.3077L93.3545 88.8231C94.2224 86.7692 95.0444 83.8923 95.8205 80.1923C95.9206 79.6923 96.2336 79.4423 96.7593 79.4423H98.1989Z"/>
</mask>
<path d="M48.3673 90.4615C48.4507 91.2308 48.4924 92.1923 48.4924 93.3462V98.1115C48.4924 98.6808 48.2463 98.9654 47.7539 98.9654H46.2017C45.676 98.9654 45.4131 98.6654 45.4131 98.0654V85.2923C45.4131 83.1308 45.2879 81.5538 45.0376 80.5615C45.0125 80.4615 45 80.3231 45 80.1462C45 79.9692 45.0751 79.8077 45.2253 79.6615C45.3839 79.5154 45.5842 79.4423 45.8262 79.4423H46.5898C47.0487 79.4423 47.3742 79.6269 47.5661 79.9962C47.7915 80.4269 47.9625 80.9846 48.0794 81.6692C48.6635 80.7308 49.4605 80.0462 50.4702 79.6154C51.1879 79.3077 52.0016 79.1538 52.9112 79.1538C53.8292 79.1538 54.647 79.3192 55.3647 79.65C56.0824 79.9731 56.679 80.4192 57.1547 80.9885C58.0977 82.1192 58.5692 83.6346 58.5692 85.5346C58.5692 87.5192 58.0393 89.1962 56.9795 90.5654C55.8612 92.0192 54.3966 92.7462 52.5857 92.7462C50.6997 92.7462 49.2936 91.9846 48.3673 90.4615ZM48.2045 86.3654C48.2045 87.4731 48.6051 88.4269 49.4062 89.2269C50.1657 89.9808 51.0252 90.3577 51.9849 90.3577C53.1949 90.3577 54.092 89.8154 54.6762 88.7308C55.1435 87.8692 55.3772 86.7808 55.3772 85.4654C55.3772 84.4038 55.1018 83.5038 54.551 82.7654C53.9585 81.9654 53.1699 81.5654 52.1852 81.5654C51.0753 81.5654 50.1281 81.9885 49.3437 82.8346C48.5842 83.6654 48.2045 84.6308 48.2045 85.7308V86.3654Z" fill="url(#paint2_linear)"/>
<path d="M48.3673 90.4615C48.4507 91.2308 48.4924 92.1923 48.4924 93.3462V98.1115C48.4924 98.6808 48.2463 98.9654 47.7539 98.9654H46.2017C45.676 98.9654 45.4131 98.6654 45.4131 98.0654V85.2923C45.4131 83.1308 45.2879 81.5538 45.0376 80.5615C45.0125 80.4615 45 80.3231 45 80.1462C45 79.9692 45.0751 79.8077 45.2253 79.6615C45.3839 79.5154 45.5842 79.4423 45.8262 79.4423H46.5898C47.0487 79.4423 47.3742 79.6269 47.5661 79.9962C47.7915 80.4269 47.9625 80.9846 48.0794 81.6692C48.6635 80.7308 49.4605 80.0462 50.4702 79.6154C51.1879 79.3077 52.0016 79.1538 52.9112 79.1538C53.8292 79.1538 54.647 79.3192 55.3647 79.65C56.0824 79.9731 56.679 80.4192 57.1547 80.9885C58.0977 82.1192 58.5692 83.6346 58.5692 85.5346C58.5692 87.5192 58.0393 89.1962 56.9795 90.5654C55.8612 92.0192 54.3966 92.7462 52.5857 92.7462C50.6997 92.7462 49.2936 91.9846 48.3673 90.4615ZM48.2045 86.3654C48.2045 87.4731 48.6051 88.4269 49.4062 89.2269C50.1657 89.9808 51.0252 90.3577 51.9849 90.3577C53.1949 90.3577 54.092 89.8154 54.6762 88.7308C55.1435 87.8692 55.3772 86.7808 55.3772 85.4654C55.3772 84.4038 55.1018 83.5038 54.551 82.7654C53.9585 81.9654 53.1699 81.5654 52.1852 81.5654C51.0753 81.5654 50.1281 81.9885 49.3437 82.8346C48.5842 83.6654 48.2045 84.6308 48.2045 85.7308V86.3654Z" fill="#1D5488"/>
<path d="M65.9041 89.2846C65.9041 89.8308 66.1127 90.1038 66.53 90.1038C66.6635 90.1038 66.8346 90.0692 67.0432 90C67.4271 89.8692 67.6608 89.8038 67.7442 89.8038C67.9362 89.8038 68.0864 89.9154 68.1949 90.1385L68.5829 90.9577C68.633 91.0731 68.658 91.1808 68.658 91.2808C68.658 91.4577 68.4995 91.6731 68.1823 91.9269C67.5481 92.4115 66.7178 92.6538 65.6913 92.6538C63.822 92.6538 62.8873 91.5038 62.8873 89.2038V72.75C62.8873 72.5423 62.9541 72.3654 63.0876 72.2192C63.2211 72.0731 63.3797 72 63.5633 72H65.2407C65.4326 72 65.5912 72.0731 65.7163 72.2192C65.8415 72.3654 65.9041 72.5423 65.9041 72.75V89.2846Z" fill="url(#paint3_linear)"/>
<path d="M65.9041 89.2846C65.9041 89.8308 66.1127 90.1038 66.53 90.1038C66.6635 90.1038 66.8346 90.0692 67.0432 90C67.4271 89.8692 67.6608 89.8038 67.7442 89.8038C67.9362 89.8038 68.0864 89.9154 68.1949 90.1385L68.5829 90.9577C68.633 91.0731 68.658 91.1808 68.658 91.2808C68.658 91.4577 68.4995 91.6731 68.1823 91.9269C67.5481 92.4115 66.7178 92.6538 65.6913 92.6538C63.822 92.6538 62.8873 91.5038 62.8873 89.2038V72.75C62.8873 72.5423 62.9541 72.3654 63.0876 72.2192C63.2211 72.0731 63.3797 72 63.5633 72H65.2407C65.4326 72 65.5912 72.0731 65.7163 72.2192C65.8415 72.3654 65.9041 72.5423 65.9041 72.75V89.2846Z" fill="#1D5488"/>
<path d="M83.2782 91.8462C83.2782 92.2538 83.0613 92.4577 82.6273 92.4577H81.4131C81.0876 92.4577 80.8915 92.4 80.8248 92.2846C80.758 92.1615 80.7204 92.0538 80.7121 91.9615C80.7037 91.8615 80.6871 91.7423 80.662 91.6038C80.6119 91.2269 80.541 90.8192 80.4492 90.3808C79.7983 91.4808 78.776 92.2077 77.3824 92.5615C76.89 92.6846 76.3476 92.7462 75.7551 92.7462C75.1626 92.7462 74.5701 92.6538 73.9775 92.4692C73.385 92.2923 72.8593 92.0269 72.4003 91.6731C71.3655 90.8731 70.8481 89.8231 70.8481 88.5231C70.8481 87.1 71.4156 86.0115 72.5505 85.2577C73.4852 84.65 74.6869 84.3462 76.1556 84.3462C77.6244 84.3462 78.8678 84.7423 79.8859 85.5346C79.9109 85.2731 79.9235 84.9462 79.9235 84.5538C79.9235 84.1615 79.84 83.7692 79.6731 83.3769C79.5062 82.9846 79.2684 82.6577 78.9596 82.3962C78.3254 81.8808 77.4408 81.6231 76.3058 81.6231C75.2877 81.6231 74.2529 81.8808 73.2014 82.3962C73.0012 82.4962 72.8259 82.5462 72.6757 82.5462C72.4504 82.5462 72.2334 82.3423 72.0248 81.9346C71.7995 81.5192 71.6868 81.2192 71.6868 81.0346C71.6868 80.6962 71.9622 80.3692 72.513 80.0538C73.5645 79.4538 74.9706 79.1538 76.7314 79.1538C78.3337 79.1538 79.6606 79.5577 80.7121 80.3654C81.9555 81.3346 82.5772 82.7038 82.5772 84.4731C82.5772 85.2577 82.4395 86.2462 82.1641 87.4385C82.8735 89.3 83.2448 90.7692 83.2782 91.8462ZM74.8913 86.9538C74.5492 87.1846 74.303 87.4154 74.1528 87.6462C74.0109 87.8769 73.94 88.15 73.94 88.4654C73.94 88.7731 73.9984 89.05 74.1152 89.2962C74.2404 89.5346 74.4115 89.7346 74.6285 89.8962C75.0875 90.2269 75.6007 90.3923 76.1682 90.3923C76.744 90.3923 77.2155 90.3308 77.5827 90.2077C77.9498 90.0846 78.267 89.9269 78.534 89.7346C79.1098 89.3192 79.3977 88.8808 79.3977 88.4192C79.3477 87.8423 79.0013 87.3885 78.3588 87.0577C77.7829 86.75 77.1028 86.5962 76.3184 86.5962C75.7092 86.5962 75.2335 86.7154 74.8913 86.9538Z" fill="url(#paint4_linear)"/>
<path d="M83.2782 91.8462C83.2782 92.2538 83.0613 92.4577 82.6273 92.4577H81.4131C81.0876 92.4577 80.8915 92.4 80.8248 92.2846C80.758 92.1615 80.7204 92.0538 80.7121 91.9615C80.7037 91.8615 80.6871 91.7423 80.662 91.6038C80.6119 91.2269 80.541 90.8192 80.4492 90.3808C79.7983 91.4808 78.776 92.2077 77.3824 92.5615C76.89 92.6846 76.3476 92.7462 75.7551 92.7462C75.1626 92.7462 74.5701 92.6538 73.9775 92.4692C73.385 92.2923 72.8593 92.0269 72.4003 91.6731C71.3655 90.8731 70.8481 89.8231 70.8481 88.5231C70.8481 87.1 71.4156 86.0115 72.5505 85.2577C73.4852 84.65 74.6869 84.3462 76.1556 84.3462C77.6244 84.3462 78.8678 84.7423 79.8859 85.5346C79.9109 85.2731 79.9235 84.9462 79.9235 84.5538C79.9235 84.1615 79.84 83.7692 79.6731 83.3769C79.5062 82.9846 79.2684 82.6577 78.9596 82.3962C78.3254 81.8808 77.4408 81.6231 76.3058 81.6231C75.2877 81.6231 74.2529 81.8808 73.2014 82.3962C73.0012 82.4962 72.8259 82.5462 72.6757 82.5462C72.4504 82.5462 72.2334 82.3423 72.0248 81.9346C71.7995 81.5192 71.6868 81.2192 71.6868 81.0346C71.6868 80.6962 71.9622 80.3692 72.513 80.0538C73.5645 79.4538 74.9706 79.1538 76.7314 79.1538C78.3337 79.1538 79.6606 79.5577 80.7121 80.3654C81.9555 81.3346 82.5772 82.7038 82.5772 84.4731C82.5772 85.2577 82.4395 86.2462 82.1641 87.4385C82.8735 89.3 83.2448 90.7692 83.2782 91.8462ZM74.8913 86.9538C74.5492 87.1846 74.303 87.4154 74.1528 87.6462C74.0109 87.8769 73.94 88.15 73.94 88.4654C73.94 88.7731 73.9984 89.05 74.1152 89.2962C74.2404 89.5346 74.4115 89.7346 74.6285 89.8962C75.0875 90.2269 75.6007 90.3923 76.1682 90.3923C76.744 90.3923 77.2155 90.3308 77.5827 90.2077C77.9498 90.0846 78.267 89.9269 78.534 89.7346C79.1098 89.3192 79.3977 88.8808 79.3977 88.4192C79.3477 87.8423 79.0013 87.3885 78.3588 87.0577C77.7829 86.75 77.1028 86.5962 76.3184 86.5962C75.7092 86.5962 75.2335 86.7154 74.8913 86.9538Z" fill="#1D5488"/>
<path d="M98.1989 79.4423C98.733 79.4423 99 79.6846 99 80.1692C99 80.7308 98.6829 81.9731 98.0487 83.8962L97.2726 86.1C95.445 90.9308 93.1793 94.9077 90.4754 98.0308L90.2251 98.3192C89.8412 98.7731 89.449 99 89.0484 99C88.6228 99 88.1304 98.7269 87.5713 98.1808C87.4128 98.0269 87.3335 97.85 87.3335 97.65C87.3335 97.3269 87.5212 96.9846 87.8968 96.6231C88.2723 96.2692 88.6186 95.9115 88.9357 95.55C89.2529 95.1962 89.5533 94.8385 89.837 94.4769C90.3544 93.8231 90.8217 93.1346 91.239 92.4115C89.9372 89.1731 89.1485 87.2346 88.8732 86.5962L87.5087 83.4692L86.5449 81.45C86.186 80.6808 86.0066 80.2154 86.0066 80.0538C86.0066 79.8846 86.0817 79.7423 86.2319 79.6269C86.3905 79.5038 86.6116 79.4423 86.8954 79.4423H88.4726C88.8398 79.4423 89.1235 79.6346 89.3238 80.0192C89.474 80.3038 89.6785 80.7731 89.9372 81.4269C90.4629 82.8423 90.8468 83.8923 91.0888 84.5769L92.1027 87.6346C92.2029 87.9423 92.278 88.1885 92.328 88.3731L92.4407 88.7885C92.4657 88.8808 92.4949 88.9962 92.5283 89.1346L92.641 89.5731C92.6827 89.7269 92.7286 89.8038 92.7787 89.8038C92.8288 89.8038 92.883 89.7577 92.9414 89.6654C93.0082 89.5731 93.0749 89.4538 93.1417 89.3077L93.3545 88.8231C94.2224 86.7692 95.0444 83.8923 95.8205 80.1923C95.9206 79.6923 96.2336 79.4423 96.7593 79.4423H98.1989Z" fill="url(#paint5_linear)"/>
<path d="M98.1989 79.4423C98.733 79.4423 99 79.6846 99 80.1692C99 80.7308 98.6829 81.9731 98.0487 83.8962L97.2726 86.1C95.445 90.9308 93.1793 94.9077 90.4754 98.0308L90.2251 98.3192C89.8412 98.7731 89.449 99 89.0484 99C88.6228 99 88.1304 98.7269 87.5713 98.1808C87.4128 98.0269 87.3335 97.85 87.3335 97.65C87.3335 97.3269 87.5212 96.9846 87.8968 96.6231C88.2723 96.2692 88.6186 95.9115 88.9357 95.55C89.2529 95.1962 89.5533 94.8385 89.837 94.4769C90.3544 93.8231 90.8217 93.1346 91.239 92.4115C89.9372 89.1731 89.1485 87.2346 88.8732 86.5962L87.5087 83.4692L86.5449 81.45C86.186 80.6808 86.0066 80.2154 86.0066 80.0538C86.0066 79.8846 86.0817 79.7423 86.2319 79.6269C86.3905 79.5038 86.6116 79.4423 86.8954 79.4423H88.4726C88.8398 79.4423 89.1235 79.6346 89.3238 80.0192C89.474 80.3038 89.6785 80.7731 89.9372 81.4269C90.4629 82.8423 90.8468 83.8923 91.0888 84.5769L92.1027 87.6346C92.2029 87.9423 92.278 88.1885 92.328 88.3731L92.4407 88.7885C92.4657 88.8808 92.4949 88.9962 92.5283 89.1346L92.641 89.5731C92.6827 89.7269 92.7286 89.8038 92.7787 89.8038C92.8288 89.8038 92.883 89.7577 92.9414 89.6654C93.0082 89.5731 93.0749 89.4538 93.1417 89.3077L93.3545 88.8231C94.2224 86.7692 95.0444 83.8923 95.8205 80.1923C95.9206 79.6923 96.2336 79.4423 96.7593 79.4423H98.1989Z" fill="#1D5488"/>
<path d="M48.3673 90.4615C48.4507 91.2308 48.4924 92.1923 48.4924 93.3462V98.1115C48.4924 98.6808 48.2463 98.9654 47.7539 98.9654H46.2017C45.676 98.9654 45.4131 98.6654 45.4131 98.0654V85.2923C45.4131 83.1308 45.2879 81.5538 45.0376 80.5615C45.0125 80.4615 45 80.3231 45 80.1462C45 79.9692 45.0751 79.8077 45.2253 79.6615C45.3839 79.5154 45.5842 79.4423 45.8262 79.4423H46.5898C47.0487 79.4423 47.3742 79.6269 47.5661 79.9962C47.7915 80.4269 47.9625 80.9846 48.0794 81.6692C48.6635 80.7308 49.4605 80.0462 50.4702 79.6154C51.1879 79.3077 52.0016 79.1538 52.9112 79.1538C53.8292 79.1538 54.647 79.3192 55.3647 79.65C56.0824 79.9731 56.679 80.4192 57.1547 80.9885C58.0977 82.1192 58.5692 83.6346 58.5692 85.5346C58.5692 87.5192 58.0393 89.1962 56.9795 90.5654C55.8612 92.0192 54.3966 92.7462 52.5857 92.7462C50.6997 92.7462 49.2936 91.9846 48.3673 90.4615ZM48.2045 86.3654C48.2045 87.4731 48.6051 88.4269 49.4062 89.2269C50.1657 89.9808 51.0252 90.3577 51.9849 90.3577C53.1949 90.3577 54.092 89.8154 54.6762 88.7308C55.1435 87.8692 55.3772 86.7808 55.3772 85.4654C55.3772 84.4038 55.1018 83.5038 54.551 82.7654C53.9585 81.9654 53.1699 81.5654 52.1852 81.5654C51.0753 81.5654 50.1281 81.9885 49.3437 82.8346C48.5842 83.6654 48.2045 84.6308 48.2045 85.7308V86.3654Z" stroke="#1D5488" mask="url(#path-3-outside-1)"/>
<path d="M65.9041 89.2846C65.9041 89.8308 66.1127 90.1038 66.53 90.1038C66.6635 90.1038 66.8346 90.0692 67.0432 90C67.4271 89.8692 67.6608 89.8038 67.7442 89.8038C67.9362 89.8038 68.0864 89.9154 68.1949 90.1385L68.5829 90.9577C68.633 91.0731 68.658 91.1808 68.658 91.2808C68.658 91.4577 68.4995 91.6731 68.1823 91.9269C67.5481 92.4115 66.7178 92.6538 65.6913 92.6538C63.822 92.6538 62.8873 91.5038 62.8873 89.2038V72.75C62.8873 72.5423 62.9541 72.3654 63.0876 72.2192C63.2211 72.0731 63.3797 72 63.5633 72H65.2407C65.4326 72 65.5912 72.0731 65.7163 72.2192C65.8415 72.3654 65.9041 72.5423 65.9041 72.75V89.2846Z" stroke="#1D5488" mask="url(#path-3-outside-1)"/>
<path d="M83.2782 91.8462C83.2782 92.2538 83.0613 92.4577 82.6273 92.4577H81.4131C81.0876 92.4577 80.8915 92.4 80.8248 92.2846C80.758 92.1615 80.7204 92.0538 80.7121 91.9615C80.7037 91.8615 80.6871 91.7423 80.662 91.6038C80.6119 91.2269 80.541 90.8192 80.4492 90.3808C79.7983 91.4808 78.776 92.2077 77.3824 92.5615C76.89 92.6846 76.3476 92.7462 75.7551 92.7462C75.1626 92.7462 74.5701 92.6538 73.9775 92.4692C73.385 92.2923 72.8593 92.0269 72.4003 91.6731C71.3655 90.8731 70.8481 89.8231 70.8481 88.5231C70.8481 87.1 71.4156 86.0115 72.5505 85.2577C73.4852 84.65 74.6869 84.3462 76.1556 84.3462C77.6244 84.3462 78.8678 84.7423 79.8859 85.5346C79.9109 85.2731 79.9235 84.9462 79.9235 84.5538C79.9235 84.1615 79.84 83.7692 79.6731 83.3769C79.5062 82.9846 79.2684 82.6577 78.9596 82.3962C78.3254 81.8808 77.4408 81.6231 76.3058 81.6231C75.2877 81.6231 74.2529 81.8808 73.2014 82.3962C73.0012 82.4962 72.8259 82.5462 72.6757 82.5462C72.4504 82.5462 72.2334 82.3423 72.0248 81.9346C71.7995 81.5192 71.6868 81.2192 71.6868 81.0346C71.6868 80.6962 71.9622 80.3692 72.513 80.0538C73.5645 79.4538 74.9706 79.1538 76.7314 79.1538C78.3337 79.1538 79.6606 79.5577 80.7121 80.3654C81.9555 81.3346 82.5772 82.7038 82.5772 84.4731C82.5772 85.2577 82.4395 86.2462 82.1641 87.4385C82.8735 89.3 83.2448 90.7692 83.2782 91.8462ZM74.8913 86.9538C74.5492 87.1846 74.303 87.4154 74.1528 87.6462C74.0109 87.8769 73.94 88.15 73.94 88.4654C73.94 88.7731 73.9984 89.05 74.1152 89.2962C74.2404 89.5346 74.4115 89.7346 74.6285 89.8962C75.0875 90.2269 75.6007 90.3923 76.1682 90.3923C76.744 90.3923 77.2155 90.3308 77.5827 90.2077C77.9498 90.0846 78.267 89.9269 78.534 89.7346C79.1098 89.3192 79.3977 88.8808 79.3977 88.4192C79.3477 87.8423 79.0013 87.3885 78.3588 87.0577C77.7829 86.75 77.1028 86.5962 76.3184 86.5962C75.7092 86.5962 75.2335 86.7154 74.8913 86.9538Z" stroke="#1D5488" mask="url(#path-3-outside-1)"/>
<path d="M98.1989 79.4423C98.733 79.4423 99 79.6846 99 80.1692C99 80.7308 98.6829 81.9731 98.0487 83.8962L97.2726 86.1C95.445 90.9308 93.1793 94.9077 90.4754 98.0308L90.2251 98.3192C89.8412 98.7731 89.449 99 89.0484 99C88.6228 99 88.1304 98.7269 87.5713 98.1808C87.4128 98.0269 87.3335 97.85 87.3335 97.65C87.3335 97.3269 87.5212 96.9846 87.8968 96.6231C88.2723 96.2692 88.6186 95.9115 88.9357 95.55C89.2529 95.1962 89.5533 94.8385 89.837 94.4769C90.3544 93.8231 90.8217 93.1346 91.239 92.4115C89.9372 89.1731 89.1485 87.2346 88.8732 86.5962L87.5087 83.4692L86.5449 81.45C86.186 80.6808 86.0066 80.2154 86.0066 80.0538C86.0066 79.8846 86.0817 79.7423 86.2319 79.6269C86.3905 79.5038 86.6116 79.4423 86.8954 79.4423H88.4726C88.8398 79.4423 89.1235 79.6346 89.3238 80.0192C89.474 80.3038 89.6785 80.7731 89.9372 81.4269C90.4629 82.8423 90.8468 83.8923 91.0888 84.5769L92.1027 87.6346C92.2029 87.9423 92.278 88.1885 92.328 88.3731L92.4407 88.7885C92.4657 88.8808 92.4949 88.9962 92.5283 89.1346L92.641 89.5731C92.6827 89.7269 92.7286 89.8038 92.7787 89.8038C92.8288 89.8038 92.883 89.7577 92.9414 89.6654C93.0082 89.5731 93.0749 89.4538 93.1417 89.3077L93.3545 88.8231C94.2224 86.7692 95.0444 83.8923 95.8205 80.1923C95.9206 79.6923 96.2336 79.4423 96.7593 79.4423H98.1989Z" stroke="#1D5488" mask="url(#path-3-outside-1)"/>
<defs>
<radialGradient id="paint0_radial" cx="0" cy="0" r="1" gradientUnits="userSpaceOnUse" gradientTransform="translate(52.5 40) rotate(123.69) scale(54.0833)">
<stop offset="0.158654" stop-color="#1D5488"/>
<stop offset="1" stop-color="#00A7C7"/>
</radialGradient>
<linearGradient id="paint1_linear" x1="42.4532" y1="49.6662" x2="202.877" y2="49.6662" gradientUnits="userSpaceOnUse">
<stop offset="0.256757" stop-color="#FA448C"/>
<stop offset="0.733108" stop-color="#43B5A0"/>
</linearGradient>
<linearGradient id="paint2_linear" x1="17.5353" y1="84.0181" x2="85.2885" y2="84.0181" gradientUnits="userSpaceOnUse">
<stop stop-color="#FEC859"/>
<stop offset="0.733108" stop-color="white"/>
</linearGradient>
<linearGradient id="paint3_linear" x1="17.5353" y1="84.0181" x2="85.2885" y2="84.0181" gradientUnits="userSpaceOnUse">
<stop stop-color="#FEC859"/>
<stop offset="0.733108" stop-color="white"/>
</linearGradient>
<linearGradient id="paint4_linear" x1="17.5353" y1="84.0181" x2="85.2885" y2="84.0181" gradientUnits="userSpaceOnUse">
<stop stop-color="#FEC859"/>
<stop offset="0.733108" stop-color="white"/>
</linearGradient>
<linearGradient id="paint5_linear" x1="17.5353" y1="84.0181" x2="85.2885" y2="84.0181" gradientUnits="userSpaceOnUse">
<stop stop-color="#FEC859"/>
<stop offset="0.733108" stop-color="white"/>
</linearGradient>
</defs>
</svg>
